<?xml version="1.0" encoding="UTF-8"?>
<svg id="Capa_2" data-name="Capa 2" xmlns="http://www.w3.org/2000/svg" viewBox="0 0 72.41 100">
  <defs>
    <style>
      .cls-1 {
        fill: #0c2340;
        stroke-width: 0px;
      }
    </style>
  </defs>
  <g id="Capa_1-2" data-name="Capa 1">
    <g id="birthdays">
      <path class="cls-1" d="M72.41,58.97v1.91c0,3.51-2.85,6.36-6.36,6.36H6.36c-3.51,0-6.36-2.85-6.36-6.36v-1.91c0-5.04,3.24-9.34,7.76-10.92v-6.47c0-6.78,5.5-12.28,12.28-12.28h13.59v-5.55c-3.74-1.11-6.47-4.57-6.47-8.67,0-5,4.05-15.09,9.05-15.09s9.05,10.09,9.05,15.09c0,4.1-2.72,7.56-6.47,8.67v5.55h13.59c6.78,0,12.28,5.5,12.28,12.28v6.47c4.52,1.58,7.76,5.88,7.76,10.92Z"/>
      <polygon class="cls-1" points="18.1 73.28 18.1 100 10.34 100 6.9 73.28 18.1 73.28"/>
      <rect class="cls-1" x="25" y="73.28" width="7.76" height="26.72"/>
      <rect class="cls-1" x="39.66" y="73.28" width="7.76" height="26.72"/>
      <polygon class="cls-1" points="65.52 73.28 62.07 100 54.31 100 54.31 73.28 65.52 73.28"/>
    </g>
  </g>
</svg>