<?xml version="1.0" encoding="UTF-8"?>
<svg id="Capa_2" data-name="Capa 2" xmlns="http://www.w3.org/2000/svg" viewBox="0 0 78.62 100">
  <defs>
    <style>
      .cls-1 {
        fill: #0c2340;
        stroke-width: 0px;
      }
    </style>
  </defs>
  <g id="Capa_1-2" data-name="Capa 1">
    <g id="easter">
      <g>
        <path class="cls-1" d="M69.65,0c.38.11.77.24,1.16.33,2.29.53,4.07,1.8,5.28,3.8,1.59,2.63,2.58,5.48,2.53,8.57-.18,12.91-3.28,25.09-9.17,36.56-.18.36-.41.69-.61,1.04-.93-1.67-1.71-3.36-2.76-4.86-1.07-1.54-2.34-2.96-3.64-4.31-.59-.61-.62-1.06-.33-1.78,1.64-4.03,3.28-8.07,4.82-12.14.32-.84.36-1.89.2-2.79-.24-1.31-1.47-2.18-2.65-2.21-1.32-.04-2.66.89-3.12,2.27-1.31,3.9-2.6,7.8-3.9,11.71-.05.16-.12.31-.24.59-3.28-2.24-6.81-3.69-10.78-4.15.06-.31.06-.55.14-.76,3.35-8.67,7.38-17.01,12.69-24.65,1.35-1.95,3.03-3.74,4.83-5.28,1.1-.95,2.72-1.31,4.11-1.93.48,0,.96,0,1.44,0Z"/>
        <path class="cls-1" d="M39.31,99.84c-2.61,0-5.22.16-7.81-.03-9.2-.67-17.09-4.33-23.34-11.13-4.73-5.14-4.5-12.8-.03-18.18,2.41-2.9,3.55-6.46,4.16-10.16,1.49-9.09,6.26-15.94,14.35-20.18,16.08-8.43,35.2.47,39.3,18.21.7,3.04,1.14,6.14,2.62,8.93.67,1.26,1.38,2.53,2.27,3.65,4.34,5.49,4.05,13.31-.9,18.34-5.78,5.86-12.78,9.4-20.96,10.31-3.19.36-6.43.28-9.64.4,0-.05,0-.11,0-.16ZM36.37,77.91c-.11,1.64-.89,2.7-2.11,3.49-.63.41-1.29.79-1.88,1.25-1.29,1-1.58,2.77-.7,4.03.93,1.32,2.55,1.62,3.99.71.99-.62,1.98-1.23,2.92-1.91.51-.37.88-.31,1.36.03.92.65,1.87,1.27,2.83,1.87,1.46.93,3.14.6,4.07-.76.89-1.31.57-2.99-.79-4-.72-.53-1.48-.99-2.2-1.52-1.05-.78-1.58-1.83-1.62-3.17.23-.08.42-.16.62-.21,1.6-.44,2.66-1.74,2.56-3.16-.11-1.51-1.43-2.89-3.06-2.96-2.09-.09-4.18-.08-6.27,0-1.54.06-2.75,1.36-2.9,2.86-.13,1.36.85,2.74,2.27,3.18.29.09.58.16.91.25ZM28.27,62.25s-.02,0-.03,0c0,.34-.02.69,0,1.03.09,1.69,1.37,3.15,2.85,3.27,1.94.15,3.43-.85,3.73-2.72.17-1.03.16-2.13,0-3.17-.26-1.7-1.71-2.86-3.28-2.84-1.63.02-3.01,1.26-3.28,2.99-.07.47-.01.96-.01,1.44ZM43.9,62.21s-.03,0-.04,0c0,.45-.02.89,0,1.34.09,1.64,1.45,2.97,3.07,3.01,1.86.05,3.28-1.06,3.44-2.79.09-1.01.09-2.05,0-3.06-.14-1.6-1.49-2.79-3.11-2.88-1.51-.08-3.09,1.13-3.35,2.64-.1.57-.02,1.16-.02,1.75Z"/>
        <path class="cls-1" d="M9.81,50.29c-2.04-3.46-3.54-6.95-4.82-10.54C2.78,33.54,1.2,27.15.44,20.6.1,17.68-.07,14.71.03,11.77c.11-3.2,1.18-6.2,3.19-8.75C5.87-.32,10.84-1.04,14.28,1.62c1.76,1.36,3.35,3.07,4.64,4.9,5.48,7.74,9.59,16.22,13.02,25.05.1.24.14.51.24.89-3.96.52-7.52,1.9-10.85,4.24-.84-2.56-1.63-4.96-2.42-7.36-.51-1.56-1.02-3.12-1.55-4.68-.67-1.96-2.41-3-4-2.42-1.72.63-2.56,2.61-1.82,4.52,1.45,3.74,2.84,7.51,4.47,11.17.74,1.67.68,2.7-.75,4-2.3,2.09-3.86,4.8-5.09,7.67-.08.18-.18.36-.35.7Z"/>
      </g>
    </g>
  </g>
</svg>