<?xml version="1.0" encoding="UTF-8"?>
<svg id="Capa_2" data-name="Capa 2" xmlns="http://www.w3.org/2000/svg" viewBox="0 0 85.61 100">
  <defs>
    <style>
      .cls-1 {
        fill: #0c2340;
        stroke-width: 0px;
      }
    </style>
  </defs>
  <g id="Capa_1-2" data-name="Capa 1">
    <g id="events">
      <path class="cls-1" d="M26.8,51.79l8.92,6.21c5,3.48,11.58-1.3,9.82-7.13l-3.15-10.4,8.66-6.57c4.85-3.68,2.34-11.41-3.75-11.54l-10.86-.22-3.57-10.26c-2-5.75-10.13-5.75-12.13,0l-3.57,10.26-10.86.22c-6.09.12-8.6,7.86-3.75,11.54l8.66,6.57-3.15,10.4c-1.76,5.83,4.82,10.61,9.82,7.13l8.92-6.21Z"/>
      <path class="cls-1" d="M85.58,28.14c-.62,13.52-12.68,25.3-26.21,25.61-1.42.03-2.81-.04-4.17-.22-2.49-.33-4.56-2.09-5.28-4.51h0c-.82-2.79.41-5.71,2.88-7.26,3.87-2.42,6.33-6.89,5.87-11.88-.56-6.02-5.5-10.89-11.53-11.37-.47-.04-.93-.05-1.38-.03-2.84.08-5.36-1.82-6.16-4.55h0c-.89-3.02.11-6.32,2.6-8.26,4.56-3.56,10.3-5.68,16.53-5.68,15.26,0,27.56,12.73,26.85,28.14Z"/>
      <path class="cls-1" d="M27.64,100c-.71,0-1.41-.29-1.92-.87l-2.67-3.04c-2.27-2.58-2.27-6.19,0-8.77l.29-.33c.57-.65.57-1.4,0-2.05-2.46-2.81-2.21-6.84.59-9.37.74-.67,1.15-1.51,1.15-2.36v-13.56c0-1.41,1.14-2.55,2.55-2.55s2.55,1.14,2.55,2.55v13.56c0,2.31-1,4.49-2.82,6.14-.75.68-.82,1.51-.19,2.23,2.27,2.58,2.27,6.19,0,8.77l-.29.33c-.57.65-.57,1.4,0,2.05l2.67,3.04c.93,1.06.82,2.67-.23,3.6-.48.42-1.08.63-1.68.63Z"/>
      <path class="cls-1" d="M57.54,99.3c-1.36,0-2.52-1.02-2.67-2.4-.21-1.95.36-3.89,1.6-5.45l.3-.37c.64-.81.64-1.86,0-2.68-2.4-3.04-2.15-7.25.59-10.01.78-.78,1.21-1.79,1.21-2.83v-15.06c0-1.48,1.2-2.69,2.69-2.69s2.69,1.2,2.69,2.69v15.06c0,2.47-.98,4.82-2.77,6.61-.81.82-.89,2.01-.19,2.89,2.17,2.75,2.17,6.59,0,9.34l-.3.37c-.36.46-.53,1.01-.47,1.56.16,1.48-.91,2.8-2.39,2.96-.1,0-.19.01-.29.01Z"/>
    </g>
  </g>
</svg>