<?xml version="1.0" encoding="UTF-8"?>
<svg id="Capa_2" data-name="Capa 2" xmlns="http://www.w3.org/2000/svg" viewBox="0 0 99.83 100">
  <defs>
    <style>
      .cls-1 {
        fill: #0c2340;
        stroke-width: 0px;
      }
    </style>
  </defs>
  <g id="Capa_1-2" data-name="Capa 1">
    <path id="halloween" class="cls-1" d="M69.28,15.23c-2.58,0-5.09.45-7.49,1.29-.8.28-1.59.6-2.36.97-.38.17-.75.36-1.12.56l9.97-9.97c.93-.93,1.39-2.13,1.39-3.35s-.46-2.42-1.39-3.35c-1.85-1.85-4.85-1.85-6.7,0l-12.96,12.96c-.1.1-.2.21-.28.32-2.79.27-5.46,1.25-7.94,2.82-3.09-1.46-6.4-2.25-9.84-2.25C13.67,15.23,0,34.21,0,57.62s13.67,42.38,30.55,42.38c3.67,0,7.18-.9,10.44-2.54,2.78,1.64,5.79,2.54,8.92,2.54s6.14-.9,8.92-2.54c3.26,1.64,6.77,2.54,10.44,2.54,16.88,0,30.55-18.98,30.55-42.38s-13.67-42.38-30.55-42.38ZM53.73,46.21l4.32-7.07,2.56-4.19c1.6-2.62,5.4-2.62,7.01,0l6.88,11.26c1.68,2.74-.29,6.25-3.5,6.25h-13.75c-3.21,0-5.18-3.51-3.5-6.25ZM24.47,46.21l.12-.2,6.76-11.06c1.6-2.62,5.4-2.62,7.01,0l3.11,5.09,3.77,6.17c1.68,2.74-.29,6.25-3.5,6.25h-13.75c-1.89,0-3.36-1.22-3.89-2.79-.38-1.08-.3-2.34.39-3.46ZM76.05,66.13c-.19.31-.38.61-.58.9-4.31,6.58-11.1,11.4-19.04,13.12-2.1.46-4.28.7-6.51.7s-4.41-.24-6.51-.7c-7.94-1.72-14.73-6.54-19.04-13.12-.2-.29-.39-.59-.58-.9-.92-1.52-.75-3.12.03-4.33,1.14-1.76,3.58-2.69,5.78-1.33,2.94,1.82,6.15,3.25,9.55,4.23,3.42.99,7.03,1.52,10.77,1.52s7.35-.53,10.77-1.52c3.4-.98,6.61-2.42,9.55-4.23,2.2-1.36,4.64-.43,5.78,1.33.78,1.2.96,2.81.03,4.33Z"/>
  </g>
</svg>