<?xml version="1.0" encoding="UTF-8"?>
<svg id="Capa_2" data-name="Capa 2" xmlns="http://www.w3.org/2000/svg" viewBox="0 0 99.39 100.31">
  <defs>
    <style>
      .cls-1 {
        stroke-width: 0px;
      }

      .cls-1, .cls-2 {
        fill: #0c2340;
      }

      .cls-2, .cls-3 {
        stroke: #0c2340;
        stroke-miterlimit: 10;
        stroke-width: .61px;
      }

      .cls-3 {
        fill: none;
      }
    </style>
  </defs>
  <g id="Capa_1-2" data-name="Capa 1">
    <g id="thanksgiving">
      <path class="cls-1" d="M.67,76.73h-.36v-3.8c0,1.28.12,2.55.36,3.8Z"/>
      <path class="cls-2" d="M97.96,66.28c-4.8-14.12-24.58-24.69-48.27-24.69S6.22,52.16,1.43,66.28c-.74,2.14-1.12,4.37-1.12,6.65,0,1.28.12,2.55.36,3.8h4.96l.56.65c4.73,5.46,12.47,5.46,17.21,0l.32-.38c.09-.1.17-.18.28-.27,1.23-1.04,3.62-1.04,4.84,0,.1.09.19.17.28.27l.33.38c4.73,5.46,12.48,5.46,17.21,0l.33-.38c.09-.1.17-.18.28-.27,1.23-1.04,3.61-1.04,4.83,0,.1.09.19.17.28.27l.34.38c4.73,5.46,12.47,5.46,17.21,0l.33-.38c.09-.1.17-.18.28-.27,1.23-1.04,3.61-1.04,4.84,0,.1.08.19.16.28.26l.34.4c4.73,5.46,12.47,5.46,17.2,0l.57-.66h4.96c.24-1.24.36-2.52.36-3.8,0-2.28-.38-4.51-1.12-6.65ZM39.8,56.96l-2.51,5.12c-.74,1.53-2.59,2.17-4.12,1.42-1.54-.74-2.17-2.59-1.42-4.12l2.51-5.13c.74-1.53,2.59-2.17,4.12-1.42,1.1.54,1.74,1.63,1.74,2.77,0,.46-.1.92-.31,1.36ZM52.78,62.01c0,1.7-1.39,3.09-3.09,3.09s-3.09-1.39-3.09-3.09v-5.7c0-1.7,1.39-3.09,3.09-3.09.85,0,1.62.35,2.18.9.55.56.9,1.33.9,2.18v5.7ZM66.22,63.49c-1.53.75-3.38.11-4.12-1.42l-2.51-5.12c-.21-.44-.31-.9-.31-1.36,0-1.14.64-2.23,1.74-2.77,1.53-.75,3.38-.11,4.12,1.42l2.51,5.13c.74,1.53.11,3.38-1.42,4.12Z"/>
      <line class="cls-3" x1="5.63" y1="76.73" x2="3.16" y2="73.88"/>
      <path class="cls-2" d="M89.11,87.39l-2.04,12.61H12.32l-2.04-12.98c.67.28,1.35.5,2.04.67,5.13,1.31,10.61-.45,14.81-5.26,3.31,3.79,7.42,5.68,11.51,5.68s8.21-1.89,11.51-5.68h0c6.63,7.59,16.4,7.59,23.02,0h0s0,0,0,0c3.95,4.51,9.01,6.33,13.87,5.47.68-.12,1.37-.3,2.04-.53Z"/>
      <path class="cls-1" d="M37.35,35.69c-1.46,0-2.65-1.19-2.65-2.65s-.51-2.03-1.66-3.25c-1.3-1.39-3.09-3.3-3.09-6.88s1.79-5.49,3.09-6.88c1.15-1.23,1.66-1.83,1.66-3.25s-.51-2.02-1.66-3.25c-1.3-1.39-3.09-3.3-3.09-6.88,0-1.46,1.19-2.65,2.65-2.65s2.65,1.19,2.65,2.65.51,2.02,1.66,3.25c1.3,1.39,3.09,3.3,3.09,6.87s-1.79,5.49-3.09,6.88c-1.15,1.23-1.66,1.83-1.66,3.25s.51,2.03,1.66,3.25c1.3,1.39,3.09,3.3,3.09,6.88,0,1.46-1.19,2.65-2.65,2.65Z"/>
      <path class="cls-1" d="M52.07,35.69c-1.46,0-2.65-1.19-2.65-2.65s-.51-2.03-1.66-3.25c-1.3-1.39-3.09-3.3-3.09-6.88s1.79-5.49,3.09-6.88c1.15-1.23,1.66-1.83,1.66-3.25s-.51-2.02-1.66-3.25c-1.3-1.39-3.09-3.3-3.09-6.88,0-1.46,1.19-2.65,2.65-2.65s2.65,1.19,2.65,2.65.51,2.02,1.66,3.25c1.3,1.39,3.09,3.3,3.09,6.87s-1.79,5.49-3.09,6.88c-1.15,1.23-1.66,1.83-1.66,3.25s.51,2.03,1.66,3.25c1.3,1.39,3.09,3.3,3.09,6.88,0,1.46-1.19,2.65-2.65,2.65Z"/>
      <path class="cls-1" d="M66.79,35.69c-1.46,0-2.65-1.19-2.65-2.65s-.51-2.03-1.66-3.25c-1.3-1.39-3.09-3.3-3.09-6.88s1.79-5.49,3.09-6.88c1.15-1.23,1.66-1.83,1.66-3.25s-.51-2.02-1.66-3.25c-1.3-1.39-3.09-3.3-3.09-6.88,0-1.46,1.19-2.65,2.65-2.65s2.65,1.19,2.65,2.65.51,2.02,1.66,3.25c1.3,1.39,3.09,3.3,3.09,6.87s-1.79,5.49-3.09,6.88c-1.15,1.23-1.66,1.83-1.66,3.25s.51,2.03,1.66,3.25c1.3,1.39,3.09,3.3,3.09,6.88,0,1.46-1.19,2.65-2.65,2.65Z"/>
    </g>
  </g>
</svg>