<?xml version="1.0" encoding="UTF-8"?>
<svg id="Capa_2" data-name="Capa 2" xmlns="http://www.w3.org/2000/svg" viewBox="0 0 76.97 100">
  <defs>
    <style>
      .cls-1 {
        fill: #0c2340;
        stroke-width: 0px;
      }
    </style>
  </defs>
  <g id="Capa_1-2" data-name="Capa 1">
    <g id="xmas-party">
      <path class="cls-1" d="M49.54,14.78L38.45,0l-11.09,14.78-6.67,8.9c1.15,1.13,2.46,2.01,3.89,2.63,2.82,1.24,6.03,1.5,9.08.61.88-.25,1.75-.6,2.58-1.05l2.13-1.15,3.15,1.58c.59.3,1.2.56,1.82.75,3.09,1.03,6.37.88,9.26-.33,1.44-.6,2.79-1.46,3.97-2.57l-7.03-9.37ZM34.46,18.21c-.58.88-1.55,1.36-2.53,1.36-.58,0-1.17-.17-1.69-.51-.02,0-.03-.03-.05-.04-1.36-.94-1.71-2.79-.79-4.17.58-.88,1.55-1.36,2.53-1.36.58,0,1.17.17,1.69.51,0,0,0,0,0,0,.87.58,1.35,1.54,1.35,2.52,0,.58-.17,1.17-.51,1.69ZM47.5,18.21c-.12.18-.25.35-.41.49-.57.57-1.34.87-2.12.87-.58,0-1.17-.17-1.69-.51-1.4-.93-1.77-2.82-.84-4.22.32-.49.77-.85,1.27-1.08.39-.18.83-.28,1.26-.28.58,0,1.17.17,1.69.51.88.58,1.36,1.55,1.36,2.53,0,.58-.17,1.17-.51,1.69Z"/>
      <path class="cls-1" d="M57.09,33.28c-2.46,1.26-5.15,2.01-7.9,2.23-.56.04-1.1.07-1.66.07-3.07,0-6.18-.67-9.11-2.07-3.38,1.49-6.99,2.02-10.49,1.69-2.73-.27-5.38-1.06-7.82-2.35l-.14.2-11.03,16.08c2.24,1.48,4.66,2.65,7.09,3.24,2.3.56,4.61.58,6.77-.17l3.18-1.1,4.23,2.54c5.85,3.51,13.19,3.62,19.15.28l3.85-2.17,1.67.58c2.01.7,4.12.79,6.24.41,2.46-.44,4.93-1.52,7.24-2.99l-11.29-16.46ZM22.57,44.48c-.5.76-1.24,1.23-2.05,1.42-.25.06-.5.09-.76.09-.64,0-1.3-.18-1.87-.57-1.56-1.03-1.97-3.13-.94-4.68.65-.98,1.72-1.5,2.81-1.5.64,0,1.3.18,1.87.57.85.57,1.36,1.43,1.47,2.37.03.15.03.3.03.44,0,.64-.18,1.3-.57,1.87ZM41.7,47.09c-.65.98-1.72,1.5-2.81,1.5-.64,0-1.3-.18-1.87-.57-1.56-1.03-1.97-3.13-.94-4.68.65-.98,1.72-1.5,2.81-1.5.64,0,1.3.18,1.87.57.98.65,1.5,1.72,1.5,2.81,0,.64-.18,1.3-.57,1.87ZM59.96,45.35c-.65.98-1.72,1.5-2.81,1.5h-.1c-.61-.02-1.23-.2-1.77-.57-1.31-.87-1.81-2.49-1.32-3.9.1-.27.22-.53.38-.77.65-.98,1.72-1.5,2.81-1.5.64,0,1.3.18,1.87.57.98.65,1.5,1.72,1.5,2.81,0,.64-.18,1.3-.57,1.87Z"/>
      <path class="cls-1" d="M66.17,60l-.29-.42c-.45.16-.91.3-1.38.42-3.37.92-6.9,1.11-10.43.24l-.88.49c-4.08,2.29-8.62,3.43-13.16,3.43-4.8,0-9.6-1.28-13.84-3.83l-.56-.34-.53-.32c-.37.12-.73.23-1.1.32-3.22.84-6.49.76-9.66,0-1.01-.23-2-.54-2.98-.9l-.63.9L0,75.5c3,2.95,7.64,4.48,12.32,3.63l2.38-.43,2.77,2.88c4.49,4.68,12.32,5.43,17.83,1.71l3.83-2.58,3.59,2.29c5.67,3.59,13.5,2.61,17.82-2.24l2.54-2.85,2.21.45c4.31.89,8.63-.27,11.7-2.74l-10.81-15.61ZM17.35,69.7c-.65.98-1.72,1.5-2.81,1.5-.64,0-1.3-.18-1.87-.57-1.56-1.03-1.97-3.13-.94-4.68.65-.98,1.72-1.5,2.81-1.5.64,0,1.3.18,1.87.57.98.65,1.5,1.72,1.5,2.81,0,.64-.18,1.3-.57,1.87ZM30.39,76.65c-.65.98-1.72,1.5-2.81,1.5-.64,0-1.3-.18-1.87-.57-1.56-1.03-1.97-3.13-.94-4.68.65-.98,1.72-1.5,2.81-1.5.64,0,1.3.18,1.87.57.98.65,1.5,1.72,1.5,2.81,0,.64-.18,1.3-.57,1.87ZM50.39,76.65c-.65.98-1.72,1.5-2.81,1.5-.64,0-1.3-.18-1.87-.57-1.56-1.03-1.97-3.13-.94-4.68.65-.98,1.72-1.5,2.81-1.5.64,0,1.3.18,1.87.57.98.65,1.5,1.72,1.5,2.81,0,.64-.18,1.3-.57,1.87ZM65.17,70.57c-.65.98-1.72,1.5-2.81,1.5-.64,0-1.3-.18-1.87-.57-1.56-1.03-1.97-3.13-.94-4.68.65-.98,1.72-1.5,2.81-1.5.64,0,1.3.18,1.87.57.98.65,1.5,1.72,1.5,2.81,0,.64-.18,1.3-.57,1.87Z"/>
      <path class="cls-1" d="M44.97,92.17v.17c-.23-.05-.44-.1-.66-.17h.66Z"/>
      <path class="cls-1" d="M44.97,92.17v.17c-.23-.05-.44-.1-.66-.17h.66Z"/>
      <path class="cls-1" d="M44.97,89.98v10.02h-13.04v-9.12c1.02-.27,2.03-.65,3.02-1.13,1.5-.71,2.94-1.64,4.31-2.79,1.61,1.22,3.3,2.15,5.05,2.79.22.09.43.16.66.23Z"/>
      <path class="cls-1" d="M44.97,92.17v.17c-.23-.05-.44-.1-.66-.17h.66Z"/>
    </g>
  </g>
</svg>