<?xml version="1.0" encoding="UTF-8"?>
<svg id="Capa_2" data-name="Capa 2" xmlns="http://www.w3.org/2000/svg" viewBox="0 0 70.39 100">
  <defs>
    <style>
      .cls-1 {
        fill: #0c2340;
        stroke-width: 0px;
      }
    </style>
  </defs>
  <g id="Capa_1-2" data-name="Capa 1">
    <g id="xmas">
      <path class="cls-1" d="M16.6,24.16c-3.82-3.82-3.82-10.01,0-13.82l1.34-1.34c3.15-3.15,6.86-5.53,10.91-7.05l4.79,19.36c-.66.43-1.3.94-1.88,1.51l-1.34,1.34c-3.82,3.82-10.01,3.82-13.82,0Z"/>
      <path class="cls-1" d="M40.22,19.56L35.44.29c1.39-.2,2.8-.29,4.23-.29,6.89,0,13.43,2.24,18.78,6.41l-14.15,14.15c-1.29-.6-2.69-.92-4.08-.99Z"/>
      <path class="cls-1" d="M8.97,77.22l13.82,13.82-6.1,6.1c-1.9,1.91-4.4,2.86-6.91,2.86s-5-.95-6.91-2.86c-3.82-3.82-3.82-10.01,0-13.82l6.1-6.1Z"/>
      <rect class="cls-1" x="18.51" y="64.3" width="14.85" height="19.55" transform="translate(-44.78 40.03) rotate(-45)"/>
      <rect class="cls-1" x="33.9" y="49.21" width="14.25" height="19.55" transform="translate(-29.69 46.28) rotate(-45)"/>
      <path class="cls-1" d="M68.53,41.29c-1.51,4.14-3.93,7.94-7.14,11.15l-3.61,3.62-13.82-13.82,3.61-3.62c.67-.67,1.24-1.41,1.72-2.21l19.25,4.89Z"/>
      <path class="cls-1" d="M70.39,30.71c0,1.33-.09,2.66-.26,3.96l-19.34-4.91c-.14-1.65-.63-3.22-1.45-4.63l13.99-13.99c4.57,5.49,7.06,12.34,7.06,19.57Z"/>
    </g>
  </g>
</svg>