<?xml version="1.0" encoding="UTF-8"?>
<svg id="Capa_2" xmlns="http://www.w3.org/2000/svg" viewBox="0 0 816.52 113.88">
  <defs>
    <style>
      .cls-1 {
        fill: #00c756;
      }

      .cls-2 {
        fill: #a8adb0;
      }

      .cls-3 {
        fill: #0c2340;
      }
    </style>
  </defs>
  <g id="Capa_1-2" data-name="Capa_1">
    <g>
      <g>
        <path class="cls-2" d="M815.41,75.65c-4.18,16.6-19.14,27.68-35.54,27.68-2.94,0-5.94-.37-8.94-1.1-19.6-4.95-31.5-24.88-26.58-44.48,4.18-16.57,19.14-27.68,35.51-27.68,2.97,0,5.97.37,8.96,1.13,19.6,4.92,31.5,24.85,26.58,44.45Z"/>
        <g>
          <path class="cls-1" d="M650.68,34.43h14.09v65.75h-14.09v-28.18h-23.29v28.18h-14.09V34.43h14.09v23.48h23.29v-23.48Z"/>
          <path class="cls-1" d="M676.51,100.18V34.43h26.77c3.6,0,6.86.91,9.77,2.72,2.91,1.82,5.22,4.25,6.93,7.3,1.71,3.05,2.56,6.41,2.56,10.07,0,2.82-.47,5.44-1.41,7.87-.94,2.43-2.28,4.57-4.02,6.43-1.74,1.86-3.78,3.36-6.13,4.48l15.59,26.86h-16.25l-14.84-25.55h-4.88v25.55h-14.09ZM690.6,60.55h10.99c1.25,0,2.4-.32,3.43-.96,1.03-.64,1.86-1.49,2.49-2.56.63-1.06.94-2.24.94-3.52s-.31-2.46-.94-3.52c-.63-1.06-1.46-1.92-2.49-2.56-1.03-.64-2.18-.96-3.43-.96h-10.99v14.09Z"/>
        </g>
      </g>
      <g>
        <g>
          <path class="cls-1" d="M23.65,105.77c-1.22,4.86-5.61,8.11-10.41,8.11-.87,0-1.75-.1-2.62-.33-5.74-1.44-9.22-7.28-7.78-13.02,1.22-4.86,5.61-8.11,10.41-8.11.86,0,1.74.11,2.62.33,5.74,1.44,9.23,7.28,7.79,13.02Z"/>
          <path class="cls-3" d="M82.52,22.07l-52.41,24.61c-1.59.75-3.27,1.11-4.91,1.11-4.35,0-8.52-2.47-10.49-6.67-2.72-5.79-.23-12.69,5.56-15.4L72.68,1.1c1.59-.75,3.27-1.1,4.92-1.1,4.35,0,8.52,2.46,10.49,6.66,2.72,5.79.23,12.69-5.56,15.41Z"/>
          <path class="cls-3" d="M87.15,83.46l-40.83,19.11c-1.59.74-3.26,1.09-4.9,1.09-4.36,0-8.53-2.47-10.5-6.68-2.71-5.79-.21-12.69,5.58-15.4l40.83-19.11c1.59-.75,3.26-1.1,4.91-1.1,4.36,0,8.53,2.47,10.5,6.67,2.71,5.79.22,12.69-5.58,15.4Z"/>
          <path class="cls-3" d="M66.01,61.46l-49.51,23.17c-1.58.74-3.26,1.09-4.9,1.09-4.36,0-8.53-2.47-10.5-6.68-2.71-5.79-.21-12.69,5.58-15.4l49.51-23.16c1.58-.75,3.25-1.1,4.9-1.1,4.36,0,8.53,2.47,10.5,6.68,2.71,5.79.21,12.69-5.58,15.4Z"/>
        </g>
        <g id="emaya">
          <g id="m_const">
            <polygon class="cls-3" points="264.21 103.93 255.93 103.93 251.15 54.78 230.34 100.92 223.6 100.92 202.78 54.78 198.01 103.93 189.73 103.93 195.69 42.51 206.29 42.51 226.97 88.37 247.65 42.51 258.24 42.51 264.21 103.93"/>
          </g>
          <g id="e">
            <polygon class="cls-3" points="160.04 97.61 160.04 103.67 119.89 103.67 119.89 42.26 159.55 42.26 159.55 48.32 128.14 48.32 128.14 69.23 158.99 69.23 158.99 75.3 128.14 75.3 128.14 97.61 160.04 97.61"/>
          </g>
          <path class="cls-3" d="M329.91,42.51h-5.18l-30.15,61.42h9.18l10.45-21.29h26.23l10.45,21.29h9.18l-30.15-61.42ZM317.19,76.57l10.13-20.64,10.13,20.64h-20.26Z"/>
          <polygon class="cls-3" points="422.18 42.51 412.33 42.51 394.69 69.52 377.04 42.51 367.2 42.51 389.91 77.27 389.91 103.93 399.4 103.93 399.4 77.37 422.18 42.51"/>
          <path class="cls-3" d="M464.78,42.51h-5.18l-30.15,61.42h9.18l10.45-21.29h26.23l10.45,21.29h9.18l-30.15-61.42ZM452.06,76.57l10.13-20.64,10.13,20.64h-20.26Z"/>
        </g>
      </g>
      <path class="cls-1" d="M555.22,112.91c-2.21,0-4.01-1.8-4.01-4.01V23.77c0-2.21,1.79-4.01,4.01-4.01s4.01,1.8,4.01,4.01v85.13c0,2.21-1.79,4.01-4.01,4.01Z"/>
    </g>
  </g>
</svg>