<?xml version="1.0" encoding="UTF-8"?>
<svg id="Capa_2" xmlns="http://www.w3.org/2000/svg" viewBox="0 0 816.52 113.88">
  <defs>
    <style>
      .cls-1 {
        fill: #00c756;
      }

      .cls-2 {
        fill: #a8adb0;
      }

      .cls-3 {
        fill: #0c2340;
      }
    </style>
  </defs>
  <g id="Capa_1-2" data-name="Capa_1">
    <g>
      <g>
        <path class="cls-2" d="M815.41,75.65c-4.18,16.6-19.14,27.68-35.54,27.68-2.94,0-5.94-.37-8.94-1.1-19.6-4.95-31.5-24.88-26.58-44.48,4.18-16.57,19.14-27.68,35.51-27.68,2.97,0,5.97.37,8.96,1.13,19.6,4.92,31.5,24.85,26.58,44.45Z"/>
        <g>
          <path class="cls-1" d="M629.72,32.16h7.28v33.96h-7.28v-14.55h-12.03v14.55h-7.28v-33.96h7.28v12.13h12.03v-12.13Z"/>
          <path class="cls-1" d="M643.06,66.12v-33.96h21.64v7.28h-14.36v4.85h11.06v7.28h-11.06v7.28h14.36v7.28h-21.64Z"/>
          <path class="cls-1" d="M670.28,66.12v-33.96h7.28v26.68h13.34v7.28h-20.62Z"/>
          <path class="cls-1" d="M696.47,66.12v-33.96h12.81c1.86,0,3.54.47,5.06,1.42,1.51.95,2.71,2.21,3.6,3.78.89,1.58,1.33,3.3,1.33,5.18s-.46,3.65-1.37,5.21c-.91,1.57-2.13,2.82-3.65,3.76-1.52.94-3.18,1.41-4.97,1.41h-5.53v13.2h-7.28ZM703.75,45.65h4.71c.65,0,1.24-.17,1.77-.5.53-.33.96-.77,1.29-1.32.32-.55.49-1.16.49-1.82s-.16-1.27-.49-1.82-.75-.99-1.29-1.32c-.53-.33-1.12-.5-1.77-.5h-4.71v7.28Z"/>
          <path class="cls-1" d="M610.41,107.12v-33.96h11.25c2.34,0,4.54.44,6.59,1.32,2.05.88,3.85,2.1,5.41,3.66s2.78,3.36,3.66,5.41c.88,2.05,1.32,4.24,1.32,6.58s-.44,4.54-1.32,6.59c-.88,2.05-2.1,3.85-3.66,5.41s-3.36,2.78-5.41,3.66c-2.05.88-4.24,1.32-6.59,1.32h-11.25ZM617.69,99.84h3.98c1.31,0,2.55-.25,3.71-.75,1.16-.5,2.2-1.2,3.1-2.09.91-.89,1.61-1.92,2.12-3.09.51-1.17.76-2.43.76-3.77s-.25-2.59-.76-3.76c-.51-1.16-1.21-2.19-2.11-3.09-.9-.9-1.93-1.6-3.09-2.1-1.17-.5-2.41-.75-3.74-.75h-3.98v19.41Z"/>
          <path class="cls-1" d="M642.53,107.12v-33.96h21.64v7.28h-14.36v4.85h11.06v7.28h-11.06v7.28h14.36v7.28h-21.64Z"/>
          <path class="cls-1" d="M682.16,107.75c-1.91,0-3.74-.3-5.48-.91-1.75-.61-3.27-1.48-4.58-2.62-1.31-1.14-2.26-2.5-2.84-4.09l6.84-2.52c.16.47.52.92,1.08,1.36.56.44,1.27.8,2.12,1.08.86.28,1.81.42,2.86.42.97,0,1.88-.14,2.74-.42.86-.28,1.55-.68,2.09-1.18.53-.5.8-1.08.8-1.75s-.28-1.24-.84-1.69c-.56-.44-1.27-.8-2.13-1.07-.87-.27-1.75-.46-2.66-.59-2.46-.36-4.66-.94-6.61-1.76-1.95-.82-3.48-1.94-4.61-3.38-1.12-1.44-1.69-3.27-1.69-5.48s.6-3.97,1.79-5.57c1.2-1.59,2.78-2.83,4.74-3.72,1.96-.89,4.09-1.33,6.37-1.33,1.91,0,3.74.3,5.49.91,1.75.61,3.29,1.48,4.6,2.63,1.31,1.15,2.25,2.52,2.81,4.12l-6.84,2.47c-.16-.47-.52-.92-1.08-1.35s-1.27-.78-2.12-1.06c-.86-.27-1.81-.41-2.86-.41-.94-.02-1.84.12-2.69.41-.86.29-1.56.69-2.11,1.19-.55.5-.83,1.07-.83,1.7,0,.87.26,1.52.78,1.95.52.43,1.2.73,2.05.91s1.78.34,2.8.49c2.33.34,4.47.95,6.43,1.82,1.96.87,3.53,2.04,4.71,3.49,1.18,1.46,1.77,3.23,1.77,5.31s-.59,3.97-1.78,5.57-2.76,2.83-4.72,3.72c-1.96.89-4.09,1.33-6.4,1.33Z"/>
          <path class="cls-1" d="M727.08,107.12h-9.51l-8.68-12.27-.97,1.16v11.11h-7.28v-33.96h7.28v11.55l9.65-11.55h9.51l-13.44,16.01,13.44,17.95Z"/>
        </g>
      </g>
      <g>
        <g>
          <path class="cls-1" d="M23.65,105.77c-1.22,4.86-5.61,8.11-10.41,8.11-.87,0-1.75-.1-2.62-.33-5.74-1.44-9.22-7.28-7.78-13.02,1.22-4.86,5.61-8.11,10.41-8.11.86,0,1.74.11,2.62.33,5.74,1.44,9.23,7.28,7.79,13.02Z"/>
          <path class="cls-3" d="M82.52,22.07l-52.41,24.61c-1.59.75-3.27,1.11-4.91,1.11-4.35,0-8.52-2.47-10.49-6.67-2.72-5.79-.23-12.69,5.56-15.4L72.68,1.1c1.59-.75,3.27-1.1,4.92-1.1,4.35,0,8.52,2.46,10.49,6.66,2.72,5.79.23,12.69-5.56,15.41Z"/>
          <path class="cls-3" d="M87.15,83.46l-40.83,19.11c-1.59.74-3.26,1.09-4.9,1.09-4.36,0-8.53-2.47-10.5-6.68-2.71-5.79-.21-12.69,5.58-15.4l40.83-19.11c1.59-.75,3.26-1.1,4.91-1.1,4.36,0,8.53,2.47,10.5,6.67,2.71,5.79.22,12.69-5.58,15.4Z"/>
          <path class="cls-3" d="M66.01,61.46l-49.51,23.17c-1.58.74-3.26,1.09-4.9,1.09-4.36,0-8.53-2.47-10.5-6.68-2.71-5.79-.21-12.69,5.58-15.4l49.51-23.16c1.58-.75,3.25-1.1,4.9-1.1,4.36,0,8.53,2.47,10.5,6.68,2.71,5.79.21,12.69-5.58,15.4Z"/>
        </g>
        <g id="emaya">
          <g id="m_const">
            <polygon class="cls-3" points="264.21 103.93 255.93 103.93 251.15 54.78 230.34 100.92 223.6 100.92 202.78 54.78 198.01 103.93 189.73 103.93 195.69 42.51 206.29 42.51 226.97 88.37 247.65 42.51 258.24 42.51 264.21 103.93"/>
          </g>
          <g id="e">
            <polygon class="cls-3" points="160.04 97.61 160.04 103.67 119.89 103.67 119.89 42.26 159.55 42.26 159.55 48.32 128.14 48.32 128.14 69.23 158.99 69.23 158.99 75.3 128.14 75.3 128.14 97.61 160.04 97.61"/>
          </g>
          <path class="cls-3" d="M329.91,42.51h-5.18l-30.15,61.42h9.18l10.45-21.29h26.23l10.45,21.29h9.18l-30.15-61.42ZM317.19,76.57l10.13-20.64,10.13,20.64h-20.26Z"/>
          <polygon class="cls-3" points="422.18 42.51 412.33 42.51 394.69 69.52 377.04 42.51 367.2 42.51 389.91 77.27 389.91 103.93 399.4 103.93 399.4 77.37 422.18 42.51"/>
          <path class="cls-3" d="M464.78,42.51h-5.18l-30.15,61.42h9.18l10.45-21.29h26.23l10.45,21.29h9.18l-30.15-61.42ZM452.06,76.57l10.13-20.64,10.13,20.64h-20.26Z"/>
        </g>
      </g>
      <path class="cls-1" d="M555.22,112.91c-2.21,0-4.01-1.79-4.01-4.01V23.77c0-2.21,1.79-4.01,4.01-4.01s4.01,1.79,4.01,4.01v85.13c0,2.21-1.79,4.01-4.01,4.01Z"/>
    </g>
  </g>
</svg>