<?xml version="1.0" encoding="UTF-8"?>
<svg id="Capa_2" data-name="Capa 2" xmlns="http://www.w3.org/2000/svg" viewBox="0 0 193.38 285">
  <defs>
    <style>
      .cls-1 {
        fill: #0c2340;
        stroke-width: 0px;
      }
    </style>
  </defs>
  <g id="Capa_1-2" data-name="Capa 1">
    <g>
      <path class="cls-1" d="M108.17,217.53c0,6.51,5.14,11.64,11.67,11.62,6.5,0,11.6-5.16,11.59-11.71-.01-6.37-5.15-11.49-11.55-11.5-6.56-.01-11.71,5.08-11.71,11.58Z"/>
      <path class="cls-1" d="M193.33,142.7c0-35.17.05-70.34-.02-105.52C193.27,16.37,177.06.1,156.24.07,116.48-.02,76.72-.03,36.95.07,16.31.12.05,16.44.04,37.04c-.05,70.34-.05,140.69,0,211.04.02,20.43,16.26,36.75,36.77,36.82,39.86.12,79.72.15,119.57-.1,4.95-.03,10.25-1.11,14.76-3.13,14.53-6.5,22.01-18.21,22.11-34.04.21-34.98.07-69.96.07-104.95ZM59.7,77.26c-.05,8.34-6,14.59-13.81,14.54-7.81-.04-13.66-6.27-13.68-14.67-.03-14.74-.03-29.48,0-44.22.02-8.34,5.98-14.58,13.81-14.54,7.83.05,13.65,6.26,13.68,14.67.03,7.37,0,14.74,0,22.11s.03,14.74,0,22.11ZM152.72,227.67c-5.21,16.71-22.34,27-39.36,23.63-15.25-3.03-26.27-15.12-27.91-30.66-1.53-14.46,7.01-28.71,20.89-34.62,1.63-.69,2.06-1.58,2.05-3.22-.06-9.24-.03-18.48-.04-27.71,0-.78-.08-1.56-.16-2.62-4.75,0-3.6,0-8.22,0-3.72-.02-5.02-1.31-5.02-5.05-.02-6.77-.02-13.54,0-20.32.02-3.85,1.29-5.09,5.22-5.11,4.53,0,3.32,0,8.22,0,0-1.7-.06-2.97,0-4.22.41-7.64,7.66-12.75,14.88-10.52,4.89,1.52,7.96,5.91,7.97,11.54.02,21.19.03,42.38-.04,63.56,0,2.04.56,3.03,2.53,3.86,15.89,6.74,24.16,24.92,19,41.46Z"/>
      <path class="cls-1" d="M108.17,217.53c0,6.51,5.14,11.64,11.67,11.62,6.5,0,11.6-5.16,11.59-11.71-.01-6.37-5.15-11.49-11.55-11.5-6.56-.01-11.71,5.08-11.71,11.58Z"/>
      <path class="cls-1" d="M108.17,217.53c0,6.51,5.14,11.64,11.67,11.62,6.5,0,11.6-5.16,11.59-11.71-.01-6.37-5.15-11.49-11.55-11.5-6.56-.01-11.71,5.08-11.71,11.58Z"/>
      <path class="cls-1" d="M108.17,217.53c0,6.51,5.14,11.64,11.67,11.62,6.5,0,11.6-5.16,11.59-11.71-.01-6.37-5.15-11.49-11.55-11.5-6.56-.01-11.71,5.08-11.71,11.58Z"/>
    </g>
  </g>
</svg>