<?xml version="1.0" encoding="UTF-8"?>
<svg id="Capa_2" data-name="Capa 2" xmlns="http://www.w3.org/2000/svg" viewBox="0 0 565.31 516.03">
  <defs>
    <style>
      .cls-1 {
        fill: #0c2340;
        stroke-width: 0px;
      }
    </style>
  </defs>
  <g id="Capa_1-2" data-name="Capa 1">
    <g>
      <path class="cls-1" d="M0,381.66C0,271.25,0,160.85,0,50.45c.94-3.52,1.72-7.09,2.85-10.55C10.95,15.06,32.71.05,60.79.04c106.91-.03,213.81-.01,320.72-.01,41.22,0,82.43-.08,123.65.03,34.28.09,59.95,24.29,60.02,57.31.2,105.8.19,211.6-.16,317.4-.03,7.83-1.98,16.27-5.3,23.37-10.74,22.93-29.6,33.59-54.84,33.59-148.12-.05-296.25-.02-444.37-.03-2.02,0-4.05-.07-6.07-.17-15.46-.74-28.32-7.03-38.98-18.13C6.88,404.47,2.63,393.47,0,381.66ZM204.58,174.77c-1.45.19-2.14.34-2.84.37-16.82.8-25.15,9.43-25.16,26.16-.01,40.66-.02,81.33.02,121.99,0,2.74.04,5.57.69,8.2,2.79,11.4,11.83,17.76,25.26,17.77,53.36.04,106.72.02,160.07,0,2.2,0,4.42-.17,6.59-.5,11.15-1.74,19.35-10.72,19.39-22.05.14-43.05.16-86.11-.01-129.16-.05-12.25-9.87-21.72-22.22-22.31-1.74-.08-3.49-.01-5.33-.01,6.37-51.62-31.3-90.7-75.06-92.47-19.47-.79-37.07,4.9-52.25,17.23-23.77,19.3-31.4,45.2-29.15,74.81Z"/>
      <path class="cls-1" d="M228.4,469.7c16.92,0,142.85-.26,159.76.09,11.25.24,20.15,8.83,21.69,19.88,1.48,10.65-4.88,21.21-15.2,24.73-2.9.99-6.11,1.5-9.18,1.51-32.19.11-173.38.19-205.57.02-17.28-.09-28.52-14.96-23.43-30.48,3.12-9.51,11.49-15.65,22.26-15.76,16.55-.17,33.11-.05,49.66-.05,0,.02,0,.05,0,.07Z"/>
      <path class="cls-1" d="M314.4,174.92c-21.29,0-41.99,0-62.68,0-4.65-23.61,5.35-41.49,25.56-45.28,18.46-3.46,35.54,10.02,37.06,29.29.4,5.09.06,10.23.06,16Z"/>
    </g>
  </g>
</svg>