<?xml version="1.0" encoding="UTF-8"?>
<svg id="Capa_2" data-name="Capa 2" xmlns="http://www.w3.org/2000/svg" viewBox="0 0 296.77 287">
  <defs>
    <style>
      .cls-1 {
        fill: #0c2340;
        stroke-width: 0px;
      }
    </style>
  </defs>
  <g id="Capa_1-2" data-name="Capa 1">
    <g>
      <path class="cls-1" d="M296.77,122.14c.04-12.2-4.4-21.61-14.29-28.97-38.42-28.58-76.65-57.41-114.96-86.12-12.53-9.39-25.83-9.41-38.42,0C90.39,36.03,51.75,65.07,13.05,94.05,4.41,100.52-.01,108.94,0,119.82c.05,48.67-.01,97.35.04,146.04.02,12.97,8.15,20.98,21.21,21.09,7.53.06,15.07.05,22.6.02v.02h213.01v-.02c5.68,0,11.37,0,17.05-.01,14.99-.02,22.79-7.86,22.79-22.95.01-47.3-.07-94.58.06-141.88ZM51.57,267.18c-2.7-10.86-5.4-21.72-8.11-32.57-3.94-15.73,4.81-26.87,21.14-26.92,12.36-.04,24.72-.12,37.08.07,3.1.05,4.64-1,6.07-3.67,5.86-11.03,14.4-19.58,25.05-26.06.99-.59,1.91-1.29,2.92-1.98-24.34-22.86-20.22-55.1-3.18-72.36,18.42-18.68,47.92-20.04,67.61-3,9.78,8.46,15.59,19.18,16.9,31.98,1.77,17.09-4.19,31.49-17.04,43.37,1.28.79,2.15,1.34,3.02,1.88,20.12,12.43,32.13,30.26,33.76,53.93.8,11.73.67,23.53.59,35.32H51.57Z"/>
      <path class="cls-1" d="M217.47,267.18h-26.8c-3.23-12.69-6.4-25.41-9.57-38.12-3.6-14.48-12.25-21.34-27.12-21.38-8.1-.02-16.19-.01-25.24-.01,8.15-10.49,17.91-16.48,29.78-18.7,30.75-5.73,58.19,16.48,58.83,47.72.21,10.11.19,20.21.12,30.49Z"/>
      <path class="cls-1" d="M168.11,108.93c16.45-.02,29.68,13.27,29.62,29.74-.06,16.13-13.33,29.45-29.47,29.57-16.28.12-29.78-13.3-29.85-29.66-.07-16.42,13.17-29.64,29.7-29.65Z"/>
    </g>
  </g>
</svg>