<?xml version="1.0" encoding="UTF-8"?>
<svg id="Capa_2" data-name="Capa 2" xmlns="http://www.w3.org/2000/svg" viewBox="0 0 320.14 286.77">
  <defs>
    <style>
      .cls-1 {
        fill: #0c2340;
        stroke-width: 0px;
      }
    </style>
  </defs>
  <g id="Capa_1-2" data-name="Capa 1">
    <g>
      <path class="cls-1" d="M108.07,118.6c-28.73,2.07-59.85-23.48-59.73-59.35C48.46,27.47,73.71.01,106.18,0c40.78-.01,61.8,31.68,61.8,59.44,0,35.63-30.88,61.3-59.91,59.16Z"/>
      <path class="cls-1" d="M320.14,218.88c-.2,33.52-27,60-60.55,59.81-32.81-.18-59.66-27.43-59.43-60.31.23-33.18,27.51-59.73,61.06-59.44,32.52.28,59.12,27.34,58.92,59.93ZM272.14,201.07c0-5.24.08-10.48-.02-15.72-.13-7.19-5.08-12.25-11.85-12.28-6.8-.03-11.95,4.92-12.07,12.12-.18,10.48-.19,20.96,0,31.43.13,7.09,5.46,12.23,12.1,12.18,6.68-.05,11.68-5.22,11.82-12.39.1-5.11.02-10.23.02-15.34ZM260.07,260.78c6.64.05,11.95-5.12,12.04-11.71.09-6.73-5.32-12.25-11.98-12.21-6.51.04-11.93,5.46-11.95,11.95-.03,6.47,5.38,11.92,11.89,11.97Z"/>
      <path class="cls-1" d="M195.08,272.24c-10.93,9.51-23.41,13.8-37.26,14.49-16.35.02-32.69-.04-49.04-.04v-.02c-8.15,0-16.3.04-24.45.08-8.46,0-16.92.02-25.38,0-27.16-.04-49.8-16.71-56.66-42.08-4.47-16.5-1.98-32.74,3.9-48.42,8.29-22.13,22.72-38.83,42.94-50.19,12.4-5.69,26.38-8.74,41.92-9.12,16.72-.41,33.62-.8,50.16,1.2,6.29.76,12.28,2.07,17.98,3.9,13.11,6.21,24.35,14.62,33.71,25.88-5.57,7.27-9.96,15.48-12.89,24.35-2.69,8.09-4.17,16.74-4.23,25.73-.08,11.63,2.25,22.76,6.53,32.91,4.79,11.37,12.83,21.7,12.77,21.33Z"/>
    </g>
  </g>
</svg>