<?xml version="1.0" encoding="UTF-8"?>
<svg id="Capa_2" data-name="Capa 2" xmlns="http://www.w3.org/2000/svg" viewBox="0 0 565.31 516.03">
  <defs>
    <style>
      .cls-1 {
        fill: #0c2340;
        stroke-width: 0px;
      }
    </style>
  </defs>
  <g id="Capa_1-2" data-name="Capa 1">
    <g>
      <path class="cls-1" d="M228.4,469.7c16.92,0,142.85-.26,159.76.09,11.25.24,20.15,8.83,21.69,19.88,1.48,10.65-4.88,21.21-15.2,24.73-2.9.99-6.11,1.5-9.18,1.51-32.19.11-173.38.19-205.57.02-17.28-.09-28.52-14.96-23.43-30.48,3.12-9.51,11.49-15.65,22.26-15.76,16.55-.17,33.11-.05,49.66-.05,0,.02,0,.05,0,.07Z"/>
      <path class="cls-1" d="M565.18,57.36c-.07-33.01-25.74-57.22-60.02-57.31-41.22-.11-82.43-.02-123.65-.02C274.6.03,167.7.01,60.79.04,32.71.05,10.95,15.06,2.85,39.89c-1.03,3.15-1.77,6.4-2.6,9.62-.16.62-.25,1.26-.25,1.9v329.38c0,.58.06,1.15.19,1.71,2.64,11.49,6.89,22.18,15.27,30.9,10.66,11.09,23.53,17.38,38.98,18.12,2.03.1,4.05.17,6.07.17,148.13.01,296.25-.01,444.37.03,25.24.01,44.1-10.65,54.84-33.58,3.32-7.1,5.28-15.54,5.3-23.37.34-105.8.36-211.6.16-317.41ZM322.4,150.54c6.02-6.2,12.21-12.3,17.47-17.47,6.49-6.36,14.71-7.56,21.44-3.11,3.02,2,5.07,4.64,6.75,6.76.5.64,1.01,1.32,1.57,1.96h0c2.7,3.07,3.13,7.51,1.07,11.03h0c-.56.94-1,1.79-1.42,2.56-1.1,2.14-2.26,4.34-4.22,6.4-6.12,6.49-12.37,12.65-17.14,17.28-4.04,3.91-8.91,5.87-13.66,5.87-4.47,0-8.83-1.71-12.36-5.2-7.32-7.26-7.11-18.23.5-26.09ZM197.18,136.44c2.09-2.99,4.79-4.92,6.96-6.46.65-.46,1.34-.92,1.96-1.44h0c3.07-2.5,7.38-2.81,10.78-.79h0c.82.49,1.61.89,2.35,1.27,1.99,1.05,4.25,2.26,6.34,4.22,6.4,6.07,12.56,12.36,17.22,17.17,7.55,7.76,7.94,18.68.9,25.94-3.51,3.62-8.01,5.42-12.61,5.42s-9.56-1.9-13.52-5.72c-5.51-5.31-11.18-11.03-17.87-17.96-6.19-6.4-7.17-14.89-2.51-21.67ZM165.39,215.94c-.08-10.08,7.52-17.67,18.06-18.06,3.2-.1,6.37-.09,9.42-.05,1.32.01,2.64.04,3.96.04,1.24,0,2.44-.03,3.67-.04,2.97-.04,6.06-.05,9.21.09,10.08.44,17.43,7.93,17.47,17.81.05,10.01-7.47,17.76-17.49,18.04-4.35.13-8.78.19-13.3.19s-8.8-.06-13.27-.17c-10.03-.26-17.67-7.92-17.73-17.84ZM248.46,272.2c-.5.84-.91,1.64-1.29,2.37-1.05,2.04-2.22,4.34-4.2,6.42-5.04,5.31-10.48,10.81-17.21,17.28-4.02,3.89-8.86,5.85-13.6,5.85s-8.91-1.76-12.43-5.32c-7.32-7.39-7.07-18.06.61-25.98,1.07-1.12,2.16-2.24,3.24-3.36,4.8-5,9.76-10.17,15.34-14.82,5.14-4.27,13.18-4.84,18.46-3.19,5,1.56,7.55,5.71,9.22,8.45.42.69.86,1.39,1.16,1.79h0c2.33,3.04,2.6,7.19.69,10.51h0ZM264.74,116.19c.21-10.05,7.85-17.67,17.73-17.78h.2c9.71,0,17.38,7.43,17.89,17.34.17,3.35.14,6.62.09,9.78,0,1.32-.01,2.67-.01,4.01,0,1.26.01,2.5.01,3.76.04,3.05.09,6.22-.08,9.47-.46,10.05-7.95,17.41-17.77,17.47h-.17c-9.96,0-17.66-7.5-17.89-17.52-.21-8.47-.21-17.41,0-26.54ZM300.67,306.11c.03,2.87.04,5.84-.05,8.85-.35,10.43-7.75,18.14-17.63,18.36h-.36c-4.79,0-9.26-1.86-12.61-5.24-3.34-3.37-5.21-7.96-5.31-12.95-.16-8.97-.16-17.69.01-25.95.21-9.97,7.81-17.63,17.64-17.79,10.21-.18,17.84,7.36,18.24,17.88.13,3.17.1,6.29.06,9.31-.01,1.27-.01,2.56-.01,3.82s0,2.46.01,3.71ZM369.44,293.05c-.21.26-.6.84-.94,1.35-1.57,2.42-3.94,6.09-8.41,7.82-2.07.81-4.62,1.27-7.26,1.27-4,0-8.15-1.07-11.11-3.65-6.62-5.74-13.22-12.28-20.79-20.58-6.44-7.05-6.1-16.93.79-24.04,6.86-7.05,16.83-7.65,23.72-1.42,7,6.31,13.53,13.11,19.84,19.71l1.34,1.36c2.31,2.42,3.14,5.16,3.72,7.16.16.53.32,1.1.55,1.71h0c1.21,3.13.66,6.67-1.44,9.3h-.01ZM382.22,233.79c-4.45.11-8.9.17-13.32.17s-8.88-.06-13.23-.17c-10.18-.27-17.57-7.85-17.53-18.01.03-10.06,7.19-17.41,17.41-17.86,3.27-.14,6.49-.13,9.58-.09,1.37.01,2.74.04,4.12.04,1.17-.03,2.36-.03,3.55-.04,2.92-.04,5.95-.05,9.02.05,10.52.39,18.12,7.95,18.11,17.98-.04,9.95-7.65,17.66-17.71,17.92Z"/>
    </g>
  </g>
</svg>