<?xml version="1.0" encoding="UTF-8"?>
<svg id="Capa_2" data-name="Capa 2" xmlns="http://www.w3.org/2000/svg" viewBox="0 0 287.13 287.15">
  <defs>
    <style>
      .cls-1 {
        fill: #0c2340;
        stroke-width: 0px;
      }
    </style>
  </defs>
  <g id="Capa_1-2" data-name="Capa 1">
    <path class="cls-1" d="M281.35,190.4c-.86-1.94-.99-3.62-.38-5.68,6.55-21.84,7.87-43.99,3.9-66.48C269.45,30.81,177.76-21.86,94.24,8.78,37.77,29.49.02,83.49,0,143.56c-.02,12.02,1.46,23.85,4.43,35.49,20.13,79.03,102.29,125.44,180.44,102.02,1.53-.46,3.57-.39,5.04.22,11.44,4.82,23.23,6.76,35.62,5.39,46.11-5.07,74.41-53.82,55.81-96.29ZM259.28,97.86c8.49,21.78,10.77,44.16,6.78,67.18-.12.69-.34,1.34-.62,2.39-14.35-13.06-30.86-19.34-49.32-19.08-1.29-17.55-2.58-34.88-3.88-52.44.03,0,.68-.15,1.33-.15,14.14-.02,28.3.02,42.44-.05,1.74,0,2.61.46,3.27,2.16ZM196.03,149.88c-.03.9-.9,2.27-1.7,2.57-18.88,7.14-32.29,19.98-40.52,38.34-.08.18-.22.33-.44.66h-58.19c-5.71-31.87-5.68-63.61-.06-95.53h96.84c3.24,17.94,4.65,35.87,4.06,53.96ZM206.34,242.69c-4.47,4.44-10.35,4.67-14.3.62-3.86-3.96-3.56-9.73.75-14.1,3.58-3.61,7.18-7.19,10.76-10.8.14-.14.21-.33.52-.84-3.72-3.7-7.6-7.38-11.24-11.3-1.37-1.47-2.62-3.34-3.15-5.25-1.17-4.23.8-8.34,4.48-10.44,3.59-2.05,8.22-1.57,11.32,1.45,4.06,3.95,7.96,8.06,12.3,12.49,4.21-4.32,8.12-8.41,12.12-12.39,2.91-2.89,6.46-3.5,10.21-2.09,3.68,1.38,5.7,4.25,6.02,8.18.25,3.07-.9,5.63-3.08,7.78-3.89,3.83-7.76,7.68-11.99,11.87,4.29,4.19,8.42,8.06,12.37,12.11,3.06,3.13,3.56,7.7,1.54,11.31-2.08,3.71-6.15,5.68-10.41,4.56-1.83-.48-3.67-1.61-5.06-2.92-3.91-3.68-7.59-7.62-11.72-11.81-4.03,4.07-7.7,7.85-11.44,11.56ZM248.38,76.6c-13.63,0-26.58-.04-39.52.03-2.2.02-2-1.64-2.32-2.81-3.36-12.34-7.73-24.28-13.82-35.54-2.03-3.76-4.3-7.39-6.8-11.66,26.4,9.92,46.76,26.42,62.45,49.98ZM124.47,28.71c.28-.28.55-.58.84-.85,11.97-11.53,24.67-11.53,36.59.08,8.95,8.73,14.78,19.46,19.4,30.9,2.3,5.69,4.2,11.53,6.39,17.61h-88.03c1.3-3.99,2.45-7.84,3.83-11.6,4.88-13.27,10.95-25.86,20.99-36.15ZM100.77,27.09c-8.27,12.75-14.11,26.55-18.54,40.98-.06.18-.14.37-.2.56-.78,2.56-.8,6.17-2.52,7.39-1.89,1.34-5.34.55-8.11.56-10.64.04-21.3.02-32.6.02,15.5-23.5,35.91-39.93,61.97-49.51ZM27.68,188.97c-11.43-30.27-11.45-60.51.06-90.76.54-1.41.94-2.55,3.02-2.53,14.55.13,29.11.07,43.66.08.29,0,.58.09,1.25.2-5.19,31.84-5.19,63.49.03,95.5h-3.1c-13.66,0-27.32-.04-40.97.04-2.03,0-3.15-.42-3.95-2.53ZM38.77,210.6c13.64,0,26.58.03,39.53-.04,2.2,0,1.99,1.66,2.3,2.83,3.37,12.44,7.82,24.45,13.95,35.8,1.98,3.67,4.22,7.2,6.69,11.38-26.4-9.93-46.77-26.4-62.47-49.97ZM134.36,265.78c-7.51-3.85-12.93-9.88-17.58-16.66-7.84-11.44-12.89-24.17-16.77-37.41-.08-.27-.02-.58-.02-.99h48.65c-1.49,17.74,2.92,33.79,13.27,48.12-7.4,8.64-18.55,11.56-27.55,6.94Z"/>
  </g>
</svg>