<?xml version="1.0" encoding="UTF-8"?>
<svg id="Capa_2" data-name="Capa 2" xmlns="http://www.w3.org/2000/svg" viewBox="0 0 287.68 258.84">
  <defs>
    <style>
      .cls-1 {
        fill: #0c2340;
        stroke-width: 0px;
      }
    </style>
  </defs>
  <g id="Capa_1-2" data-name="Capa 1">
    <g>
      <path class="cls-1" d="M174.25,242.1c-3.85,0-7.48,0-11.1,0-40.54,0-81.07.04-121.61-.02-20.75-.03-37.21-13.8-40.96-34.16-.46-2.53-.54-5.16-.54-7.74-.03-48.32-.06-96.63,0-144.95C.06,34.12,13.66,17.51,34.24,14.16c6.99-1.14,14.26-.52,21.41-.68,2.16-.05,4.32,0,6.84,0,0-1.83-.08-3.36.02-4.88C62.83,3.6,66.56.03,71.38,0c4.85-.03,8.59,3.45,9,8.46.12,1.53.02,3.09.02,4.82h107.19c0-1.43-.05-2.75,0-4.06.24-5.57,4.04-9.34,9.24-9.21,5.02.12,8.61,3.99,8.71,9.4.02,1.23,0,2.46,0,4.06,4.97,0,9.73-.2,14.46.05,6.08.31,12.34.18,18.17,1.65,17.02,4.28,29.44,19.99,29.62,37.54.29,29.75.11,59.51.11,89.27,0,.49-.11.97-.16,1.4-31.64-14.94-61.15-12.34-85.36,13.49-23.82,25.42-24.6,54.72-8.14,85.24ZM144.36,163.18c.02-5.64-4.57-10.27-10.26-10.33-5.69-.06-10.33,4.44-10.45,10.13-.12,5.7,4.69,10.59,10.4,10.55,5.59-.04,10.28-4.75,10.31-10.34ZM69.46,96.49c-5.7.06-10.18,4.63-10.16,10.36.02,5.7,4.57,10.23,10.28,10.24,5.84,0,10.41-4.65,10.32-10.51-.09-5.69-4.7-10.14-10.43-10.08ZM208.69,106.94c.06-5.73-4.39-10.35-10.07-10.45-5.75-.1-10.39,4.32-10.52,9.99-.13,5.88,4.39,10.57,10.22,10.6,5.73.03,10.31-4.45,10.37-10.15ZM79.89,163.09c-.03-5.68-4.62-10.26-10.29-10.26-5.67,0-10.27,4.57-10.31,10.24-.03,5.8,4.72,10.57,10.44,10.46,5.65-.11,10.18-4.77,10.15-10.44ZM133.87,117.08c5.68.05,10.34-4.42,10.49-10.09.15-5.59-4.45-10.39-10.07-10.51-5.82-.12-10.6,4.48-10.64,10.24-.04,5.63,4.58,10.3,10.22,10.35Z"/>
      <path class="cls-1" d="M287.68,204.14c0,30.07-24.5,54.64-54.56,54.7-30.16.06-54.86-24.61-54.85-54.77.02-30.19,24.67-54.72,54.92-54.65,30.09.07,54.49,24.57,54.49,54.72ZM226.33,203.61c-1.52-1.94-2.84-3.66-4.19-5.35-3.63-4.54-9.05-5.57-13.08-2.5-4.28,3.26-4.76,8.73-1.11,13.45,3.04,3.93,6.1,7.85,9.2,11.73,4.18,5.21,9.06,5.78,14.28,1.62,8.33-6.66,16.62-13.36,24.9-20.08,4.65-3.77,5.51-9.21,2.17-13.33-3.29-4.07-8.81-4.3-13.5-.53-6.13,4.92-12.26,9.85-18.67,15Z"/>
    </g>
  </g>
</svg>