<?xml version="1.0" encoding="UTF-8"?>
<svg id="Capa_2" data-name="Capa 2" xmlns="http://www.w3.org/2000/svg" viewBox="0 0 299.66 271.14">
  <defs>
    <style>
      .cls-1 {
        fill: #0c2340;
        stroke-width: 0px;
      }
    </style>
  </defs>
  <g id="Capa_1-2" data-name="Capa 1">
    <g>
      <path class="cls-1" d="M59.59,101.69c-7.32,16.5-9.27,34.2-8.33,52.2.93,17.87,5.68,34.67,13.94,50.51,8.33,15.95,19.85,29.28,33.56,40.91-36.75-5.49-82.86-37.77-95.65-93.41C-8.89,99.74,14.54,45.13,61.42,17.19c45.5-27.12,101.75-20.02,135.63,6.42-63.88-5.8-110.95,18.29-137.46,78.08Z"/>
      <path class="cls-1" d="M102.71,247.49c63.06,5.84,111.34-16.78,136.13-75.73,23.64-56.21,7.13-105.12-36.93-145.48,20.9-4.82,70.32,33.32,85.59,66.47,25.65,55.67,9.74,118.8-38.81,154.57-46.74,34.44-109.07,28.93-145.99.17Z"/>
    </g>
  </g>
</svg>