<?xml version="1.0" encoding="UTF-8"?>
<svg id="Capa_2" data-name="Capa 2" xmlns="http://www.w3.org/2000/svg" viewBox="0 0 182.54 271.79">
  <defs>
    <style>
      .cls-1 {
        fill: #0c2340;
        stroke-width: 0px;
      }
    </style>
  </defs>
  <g id="Capa_1-2" data-name="Capa 1">
    <path class="cls-1" d="M164.83,161.24h17.72V19.27c0-10.64-8.63-19.27-19.27-19.27h-30.96c0,.08,0,.15,0,.22,0,22.66-18.38,41.04-41.04,41.04S50.23,22.89,50.23.22c0-.08,0-.15,0-.22h-30.96C8.63,0,0,8.63,0,19.27v141.97c.08,0,.15,0,.22,0h17.94c4.96,0,8.97,4.01,8.97,8.97s-4.01,8.97-8.97,8.97H.22c-.08,0-.15,0-.22,0v73.35c0,10.64,8.63,19.27,19.27,19.27h30.96c.12-22.56,18.45-40.81,41.03-40.81s40.92,18.25,41.03,40.81h30.96c10.64,0,19.27-8.63,19.27-19.27v-73.34h-17.72c-4.96,0-8.97-4.01-8.97-8.97s4.01-8.97,8.97-8.97ZM76.83,179.18h-29.33c-4.96,0-8.97-4.01-8.97-8.97s4.01-8.97,8.97-8.97h29.33c4.96,0,8.97,4.01,8.97,8.97s-4.01,8.97-8.97,8.97ZM135.49,179.18h-29.33c-4.96,0-8.97-4.01-8.97-8.97s4.01-8.97,8.97-8.97h29.33c4.96,0,8.97,4.01,8.97,8.97s-4.01,8.97-8.97,8.97Z"/>
  </g>
</svg>