<?xml version="1.0" encoding="UTF-8"?>
<svg id="Capa_2" data-name="Capa 2" xmlns="http://www.w3.org/2000/svg" viewBox="0 0 359.47 310.2">
  <defs>
    <style>
      .cls-1 {
        fill: #0c2340;
        stroke-width: 0px;
      }
    </style>
  </defs>
  <g id="Capa_1-2" data-name="Capa 1">
    <g>
      <path class="cls-1" d="M294.03,310.2H65.63c-4.19,0-7.63-3.33-7.77-7.52-.17-4.89-.29-9.75.39-14.48,1.28-8.91,11.19-15.31,22.2-15.44,12.73-.14,25.46-.04,38.19-.05,1.36,0,2.73,0,4.38,0v-27.01h-4.46c-29.7,0-59.4.04-89.1-.02-14.85-.03-25.78-8.27-28.72-21.95-.48-2.24-.65-4.54-.66-6.84C0,154.11-.01,91.32.02,28.54.03,12.02,11.84.04,28.26.03c100.96-.05,201.91-.04,302.87,0,16.63,0,28.31,11.96,28.32,28.8.03,62.38.02,124.76,0,187.14,0,18.17-11.47,29.68-29.73,29.71-29.45.06-58.9.02-88.35.02-1.49,0-2.98,0-4.83,0v26.84c1.22.05,2.53.16,3.85.16,12.6.01,25.21,0,37.81.01,5.5,0,10.64,1.34,15.2,4.46,5.38,3.68,8.54,8.61,8.44,15.37-.05,3.25-.05,6.51-.04,9.84.01,4.3-3.47,7.81-7.78,7.81ZM23.16,198.77h313.15v-3.96c0-55.01,0-110.01,0-165.02,0-3.66-2.97-6.63-6.63-6.63-99.96,0-199.93,0-299.89,0-3.66,0-6.62,2.96-6.62,6.62,0,55.01,0,110.02,0,165.03,0,1.23,0,2.46,0,3.96Z"/>
      <path class="cls-1" d="M162.35,93.5c-1.56,1.62-3.57,2.42-5.62,2.42s-4.27-.85-6.04-2.56c-2.46-2.37-4.99-4.92-7.97-8.01-2.76-2.85-3.2-6.65-1.12-9.66.93-1.34,2.13-2.2,3.1-2.89.29-.2.59-.41.88-.64l2.28-1.85,2.53,1.5c.37.22.72.4,1.05.57.88.47,1.89,1.01,2.82,1.88,2.85,2.71,5.61,5.51,7.69,7.66,3.36,3.46,3.53,8.34.4,11.57Z"/>
      <path class="cls-1" d="M220.55,78.98l-1.54,2.64c-.25.41-.45.8-.63,1.14-.49.95-1.01,1.93-1.88,2.85-2.73,2.89-5.52,5.64-7.65,7.71-1.8,1.74-3.97,2.62-6.09,2.62-1.99,0-3.94-.77-5.51-2.32-3.27-3.24-3.17-8.13.22-11.64,2.69-2.77,5.45-5.49,7.8-7.8,2.89-2.84,6.56-3.37,9.56-1.38,1.35.89,2.27,2.06,3.01,3.01.23.29.45.59.7.88l2.02,2.29Z"/>
      <path class="cls-1" d="M165.89,133.8l-1.42,2.45c-.22.38-.41.73-.57,1.06-.47.91-.99,1.93-1.88,2.86-2.24,2.37-4.68,4.82-7.67,7.71-1.8,1.74-3.96,2.61-6.07,2.61s-3.97-.79-5.54-2.38c-3.27-3.29-3.16-8.05.27-11.59.48-.5.96-1,1.44-1.5,2.14-2.23,4.36-4.54,6.85-6.61,2.29-1.91,5.88-2.16,8.23-1.42,2.23.7,3.36,2.55,4.11,3.77.19.3.38.62.52.8l1.72,2.24Z"/>
      <path class="cls-1" d="M219.97,143.66l-1.52,1.89c-.09.12-.27.38-.41.6-.7,1.08-1.76,2.71-3.75,3.49-.92.37-2.06.57-3.24.57-1.78,0-3.64-.48-4.96-1.63-2.96-2.56-5.9-5.48-9.27-9.18-2.87-3.14-2.72-7.55.35-10.73,3.06-3.14,7.51-3.41,10.58-.63,3.12,2.82,6.04,5.85,8.85,8.79l.59.61c1.03,1.08,1.4,2.3,1.67,3.19.07.23.14.49.24.77l.87,2.26Z"/>
      <path class="cls-1" d="M187.76,74.29c.02,1.36.04,2.78-.03,4.22-.21,4.48-3.55,7.76-7.93,7.8h-.08c-4.44,0-7.87-3.35-7.98-7.82-.09-3.78-.09-7.76,0-11.84.09-4.48,3.5-7.88,7.91-7.93h.09c4.33,0,7.76,3.32,7.98,7.73.08,1.49.06,2.96.04,4.36,0,.59,0,1.2,0,1.79,0,.56,0,1.12,0,1.68Z"/>
      <path class="cls-1" d="M154.99,111.06c.02,4.46-3.33,7.92-7.8,8.05-1.94.05-3.92.09-5.93.09s-3.93-.03-5.92-.08c-4.48-.12-7.88-3.53-7.91-7.96-.03-4.5,3.35-7.88,8.05-8.05,1.43-.05,2.85-.04,4.21-.02.59,0,1.17.02,1.77.02.55,0,1.09,0,1.63-.02,1.33-.02,2.71-.02,4.11.04,4.5.2,7.77,3.54,7.79,7.94Z"/>
      <path class="cls-1" d="M232.05,111.12c-.02,4.43-3.41,7.87-7.9,7.99-1.99.05-3.97.08-5.94.08s-3.96-.03-5.9-.08c-4.54-.13-7.84-3.5-7.82-8.03,0-4.49,3.21-7.76,7.76-7.97,1.46-.06,2.89-.05,4.28-.04.61,0,1.22.02,1.84.02.52,0,1.06,0,1.58-.02,1.31-.02,2.66-.02,4.03.02,4.69.17,8.09,3.54,8.08,8.02Z"/>
      <path class="cls-1" d="M187.77,151.38c0,1.28.02,2.6-.02,3.95-.16,4.65-3.46,8.09-7.87,8.19h-.16c-2.13,0-4.13-.83-5.62-2.34-1.49-1.5-2.32-3.55-2.37-5.77-.07-4-.07-7.9,0-11.58.09-4.45,3.48-7.87,7.87-7.94,4.56-.08,7.96,3.28,8.14,7.98.05,1.42.05,2.81.03,4.15,0,.57,0,1.14,0,1.7s0,1.1,0,1.66Z"/>
    </g>
  </g>
</svg>