<?xml version="1.0" encoding="UTF-8"?>
<svg id="Capa_2" data-name="Capa 2" xmlns="http://www.w3.org/2000/svg" viewBox="0 0 383.28 383.32">
  <defs>
    <style>
      .cls-1 {
        fill: #0c2340;
        stroke-width: 0px;
      }
    </style>
  </defs>
  <g id="Capa_1-2" data-name="Capa 1">
    <path class="cls-1" d="M362.32,71.85c3.49,0,7-.19,10.47.04,4.94.33,8.48-1.44,10.49-6.03v-4.49c-2.39-4.26-6.01-5.66-10.86-5.51-9.45.28-18.91.08-29,.08v-13.2c-.02-8.24-2.51-10.76-10.7-10.76-15.47.01-30.95-.23-46.41.11-20.25.45-36.88,12.69-43.7,31.23h-13.35c-1.65,0-2.98,1.33-2.98,2.98v5.55h-2v-2.55c0-1.65-1.33-2.98-2.98-2.98-.82,0-1.56.33-2.1.87-.54.54-.88,1.29-.88,2.11v2.55c-20.18,0-40.35.01-60.53,0-8.59-.01-13.79-5.36-14.1-13.96-.3-8.44.19-17.14-1.72-25.24C137.3,12.8,117.61-.88,96.86.04c-20.03.89-36.79,15.73-40.33,35.85-.52,2.92-.53,5.96-.54,8.94-.05,15.47-.02,30.95-.02,46.42v4.56h-4.27c-12.1,0-24.2-.03-36.3.01C5.93,95.85.02,101.78.02,111.29,0,164.82,0,218.35.02,271.87c0,9.7,5.92,15.58,15.63,15.61,11.98.03,23.95,0,35.93,0h4.39v4.44c0,15.35-.01,30.7,0,46.04.02,23.93,13.14,39.94,36.69,44.79.33.07.62.38.92.57h11.23c.81-.25,1.61-.56,2.44-.75,18.36-4.32,30.8-15.27,35.2-33.7,1.8-7.49,1.05-15.61,1.26-23.44.23-8.63,5.46-13.98,14.04-13.98,19.96,0,39.92,0,59.88,0h.69v1.9c0,1.65,1.34,2.98,2.98,2.98s2.98-1.33,2.98-2.98v-1.9h2v4.9c0,1.65,1.33,2.98,2.98,2.98h13.85c7.08,15.91,20.3,24.11,39,24.13,14.22.01,28.45.01,42.67,0,6.82,0,8.79-1.44,10.96-8.05,9.77,0,19.61,0,29.46,0,7.27-.01,10.01-2.68,10.02-9.87.03-14.35.02-28.7.01-43.05,0-8.62-2.26-10.9-10.81-10.91h-28.64c-2.27-6.71-4.14-8.05-11.05-8.04-15.34,0-30.69-.12-46.03.05-15.64.18-29.46,9.6-35.68,23.74h-13.76c-1.65,0-2.98,1.33-2.98,2.98v5.25c-.67,0-1.34,0-2,.01v-2.26c0-1.65-1.33-2.98-2.98-2.98-.82,0-1.56.33-2.1.87-.54.54-.88,1.29-.88,2.11v2.28c-20.09.1-40.17.27-60.24-.2-17.61-.41-31.04,15.39-30.29,30.28.24,4.61.14,9.24.01,13.85-.45,15.62-13.56,28.21-28.91,27.86-15.68-.35-26.99-12.22-27.01-28.4-.02-15.84,0-31.69,0-47.54v-3.95h4.42c17.22,0,34.43.02,51.65,0,9.94-.02,15.79-5.87,15.79-15.83.01-53.28.01-106.56,0-159.84,0-10.2-5.79-15.99-15.99-16-17.22-.01-34.43,0-51.65,0h-4.22v-3.4c0-16.35-.04-32.7.02-49.04.05-15.06,10.84-26.34,26.07-27.4,13.96-.97,27.68,9.97,29.37,23.91.71,5.79.71,11.72.43,17.55-.73,15.12,12.78,30.93,30.51,30.49,20.01-.49,40.03-.32,60.05-.22v1.64c0,1.65,1.34,2.98,2.98,2.98s2.98-1.33,2.98-2.98v-1.61c.67.01,1.33.01,2,.01v4.6c0,1.65,1.33,2.98,2.98,2.98h12.93c5.98,17.69,21.66,30.8,40.53,31.92,17.4,1.04,34.9.54,52.36.49,5.35-.01,8.2-3.4,8.31-9.05.1-4.82.02-9.64.02-14.82,10.06,0,19.64-.13,29.21.05,4.83.1,8.47-1.42,10.66-5.85v-4.5c-2.18-4.44-5.82-5.95-10.65-5.85-9.57.18-19.15.05-28.96.05v-15.91h18.65ZM47.9,246.03c0,1.35-.11,2.77-.51,4.04-1.23,3.81-4.79,5.86-8.81,5.26-3.82-.57-6.48-3.58-6.51-7.91-.09-13.35-.03-26.7-.03-40.05h-.03v-36.69c.01-1.24-.03-2.5.09-3.74.41-4.11,3.69-7.16,7.71-7.23,3.8-.08,7.25,2.75,7.96,6.6.18.97.14,1.99.14,2.98.01,25.58.02,51.16-.01,76.74ZM365.28,283c0-1.52,1.23-2.76,2.76-2.76s2.75,1.24,2.75,2.76v40.09c0,1.52-1.23,2.75-2.75,2.75-.76,0-1.46-.31-1.95-.8s-.81-1.19-.81-1.95v-40.09ZM95.93,135.02c.2-4.31,3.83-7.25,8.09-7.15,4.15.1,7.31,2.98,7.59,7.23.19,2.85.04,5.73.04,8.6.01,2.74.15,5.49-.03,8.22-.28,4.3-3.75,7.48-7.87,7.45-3.95-.03-7.6-3.07-7.8-7.15-.27-5.72-.27-11.48-.02-17.2ZM72.06,191.91c4.38.13,7.7,3.48,7.8,8.41.16,7.85.04,15.71.04,23.56.01,7.61.16,15.22-.04,22.82-.17,6.63-6.36,10.79-11.49,7.52-2.09-1.34-4.24-4.44-4.3-6.79-.38-15.82-.3-31.66-.15-47.5.05-4.8,3.8-8.14,8.14-8.02Z"/>
  </g>
</svg>